<?xml version="1.0" encoding="UTF-8"?>
<svg width="51px" height="35px" viewBox="0 0 51 35" version="1.1" xmlns="http://www.w3.org/2000/svg" xmlns:xlink="http://www.w3.org/1999/xlink">
    <!-- Generator: Sketch 51.2 (57519) - http://www.bohemiancoding.com/sketch -->
    <title>logo copy 5</title>
    <desc>Created with Sketch.</desc>
    <defs></defs>
    <g id="Page-1" stroke="none" stroke-width="1" fill="none" fill-rule="evenodd">
        <g id="logo-copy-5" fill="#212121" fill-rule="nonzero">
            <path d="M24.3413456,34.3901194 L24.3414896,34.44 L23.8407212,34.0346519 L0.643096673,17.5632188 L0,17.1491359 L0.161843798,17.0328444 L0,16.9166667 L0.161843798,17.0328444 L2.16530246,15.5932757 L2.15719149,15.5809477 L4.43773083,13.9196264 L11.6494294,8.66606709 L13.9299688,7.00474576 L13.9505134,7.03597177 L13.9505134,14.0894432 L10.0027198,16.9653216 L18.7995729,23.1362853 L18.7995729,12.2583051 L18.7995729,9.33966102 L18.805127,9.33966102 L18.805441,9.30619996 L18.7995729,9.30612641 L18.8120475,5.83728814 L18.8381123,5.8539233 L18.8381123,5.83333333 L24.3787336,9.33333333 C24.3787336,9.33333333 24.3787336,17.6944444 24.3787336,34.4166667 L24.3413456,34.3901194 Z M26.427718,29.75 L26.427718,26.8333333 L26.427718,12.25 L26.427718,9.33333333 L26.427718,5.819454 L26.427718,2.91666667 L26.4324644,2.91747706 L26.4324644,0 L31.8699582,4.00239721 L31.9471483,4.04186166 L31.9471642,4.05922654 L31.9638376,4.07149933 L31.9471852,4.0820034 L31.9488073,5.84376949 L31.9651501,5.83333333 L31.9776094,9.29982144 L31.9667221,9.29995797 L31.9670352,9.33333333 L31.9683393,9.33333333 L31.9683393,9.47237966 L31.972696,9.93688382 L31.9683393,9.93688043 L31.9683393,12.25 L31.9683393,23.0690845 L40.7914269,16.8762758 L36.9548984,14.0798976 L36.9548984,7.03120485 L36.9754178,7 L39.2531455,8.66019577 L46.4559532,13.9101958 L48.1940885,15.1770921 L48.2050582,15.1666667 L50.8064516,16.9166667 L26.427718,34.4166667 L26.427718,33.25 L26.427718,29.75 Z M24.3377739,7.56574063 L18.8613656,3.78287032 L24.3563149,0 L24.3377739,7.56574063 Z" id="Combined-Shape"></path>
        </g>
    </g>
</svg>