<?xml version="1.0" encoding="UTF-8"?>
<svg width="265px" height="183px" viewBox="0 0 265 183" version="1.1" xmlns="http://www.w3.org/2000/svg" xmlns:xlink="http://www.w3.org/1999/xlink">
    <!-- Generator: Sketch 51.2 (57519) - http://www.bohemiancoding.com/sketch -->
    <title>Combined Shape</title>
    <desc>Created with Sketch.</desc>
    <defs></defs>
    <g id="Page-1" stroke="none" stroke-width="1" fill="none" fill-rule="evenodd">
        <g id="logo-copy-4" fill="#FFFFFF" fill-rule="nonzero">
            <path d="M129.356865,182.75892 L129.35763,183.024 L126.696404,180.869864 L3.41759946,93.3359629 L0,91.1354082 L0.860084186,90.5174018 L0,89.9 L0.860084186,90.5174018 L11.5070359,82.8671222 L11.4639319,82.801608 L23.5833696,73.9728718 L61.9083965,46.0539565 L74.0278341,37.2252203 L74.1370142,37.3911643 L74.1370142,74.875327 L53.1573111,90.1585662 L99.9063017,122.952831 L99.9063017,65.1441356 L99.9063017,49.6336271 L99.9358179,49.6336271 L99.9374867,49.4558055 L99.9063017,49.4554146 L99.9725954,31.0210169 L100.111111,31.109421 L100.111111,31 L129.555556,49.6 C129.555556,49.6 129.555556,94.0333333 129.555556,182.9 L129.356865,182.75892 Z M135.444444,158.1 L135.444444,142.6 L135.444444,65.1 L135.444444,49.6 L135.444444,30.9262413 L135.444444,15.5 L135.469668,15.5043067 L135.469668,0 L164.366064,21.2698823 L164.776274,21.4796077 L164.776359,21.5718896 L164.864965,21.6371107 L164.77647,21.6929324 L164.78509,31.0554607 L164.871941,31 L164.938153,49.4219082 L164.880295,49.4226338 L164.881958,49.6 L164.888889,49.6 L164.888889,50.3389319 L164.912042,52.8074397 L164.888889,52.8074217 L164.888889,65.1 L164.888889,122.595706 L211.777297,89.6853514 L191.388889,74.8245984 L191.388889,37.3658315 L191.497934,37.2 L203.602431,46.0227547 L241.880208,73.9227547 L251.117156,80.6554036 L251.175452,80.6 L265,89.9 L135.444444,182.9 L135.444444,176.7 L135.444444,158.1 Z M129.337884,40.2065074 L100.234686,20.1032537 L129.436416,0 L129.337884,40.2065074 Z" id="Combined-Shape"></path>
        </g>
    </g>
</svg>